<svg xmlns="http://www.w3.org/2000/svg" width="1180" height="560" viewBox="0 0 1180 560"><title>AlphaZero state-specific decision evidence</title><style>text{font-family:Arial;fill:#0f172a}.t{font-size:22px;font-weight:700}.h{font-size:15px;font-weight:700}.n{font-size:11px}.b{font-size:12px}</style><rect width="1180" height="560" fill="#f8fafc"/><text x="24" y="32" class="t">AlphaZero decision evidence - RGAT</text><text x="24" y="53" class="n">Pre-move state | network evidence | MCTS root trace | model attention is not causal proof</text><text x="28" y="78" class="h">Board</text><text x="344" y="78" class="h">Decision / search</text><text x="760" y="78" class="h">Relational evidence</text><g data-node-row="0" data-node-col="0" data-action="0" data-role="cell"><rect x="28" y="92" width="46" height="46" fill="#ffffff" stroke="#94a3b8"/><circle cx="51.0" cy="115.0" r="14" fill="#0f172a" stroke="#0f172a" stroke-width="2"/></g><g data-node-row="0" data-node-col="1" data-action="1" data-role="selected_move"><rect x="74" y="92" width="46" height="46" fill="#fef3c7" stroke="#94a3b8"/><rect x="77" y="95" width="40" height="40" fill="none" stroke="#e11d48" stroke-width="4"/></g><g data-node-row="0" data-node-col="2" data-action="2" data-role="cell"><rect x="120" y="92" width="46" height="46" fill="#ffffff" stroke="#94a3b8"/></g><g data-node-row="0" data-node-col="3" data-action="3" data-role="cell"><rect x="166" y="92" width="46" height="46" fill="#ffffff" stroke="#94a3b8"/></g><g data-node-row="0" data-node-col="4" data-action="4" data-role="cell"><rect x="212" y="92" width="46" height="46" fill="#ffffff" stroke="#94a3b8"/></g><g data-node-row="0" data-node-col="5" data-action="5" data-role="cell"><rect x="258" y="92" width="46" height="46" fill="#ffffff" stroke="#94a3b8"/></g><g data-node-row="1" data-node-col="0" data-action="6" data-role="cell"><rect x="28" y="138" width="46" height="46" fill="#ffffff" stroke="#94a3b8"/><circle cx="51.0" cy="161.0" r="14" fill="#0f172a" stroke="#0f172a" stroke-width="2"/></g><g data-node-row="1" data-node-col="1" data-action="7" data-role="mcts_candidate"><rect x="74" y="138" width="46" height="46" fill="#ffffff" stroke="#94a3b8"/></g><g data-node-row="1" data-node-col="2" data-action="8" data-role="mcts_candidate"><rect x="120" y="138" width="46" height="46" fill="#ffffff" stroke="#94a3b8"/></g><g data-node-row="1" data-node-col="3" data-action="9" data-role="cell"><rect x="166" y="138" width="46" height="46" fill="#ffffff" stroke="#94a3b8"/></g><g data-node-row="1" data-node-col="4" data-action="10" data-role="cell"><rect x="212" y="138" width="46" height="46" fill="#ffffff" stroke="#94a3b8"/></g><g data-node-row="1" data-node-col="5" data-action="11" data-role="cell"><rect x="258" y="138" width="46" height="46" fill="#ffffff" stroke="#94a3b8"/></g><g data-node-row="2" data-node-col="0" data-action="12" data-role="cell"><rect x="28" y="184" width="46" height="46" fill="#ffffff" stroke="#94a3b8"/><circle cx="51.0" cy="207.0" r="14" fill="#0f172a" stroke="#0f172a" stroke-width="2"/></g><g data-node-row="2" data-node-col="1" data-action="13" data-role="mcts_candidate"><rect x="74" y="184" width="46" height="46" fill="#ffffff" stroke="#94a3b8"/></g><g data-node-row="2" data-node-col="2" data-action="14" data-role="cell"><rect x="120" y="184" width="46" height="46" fill="#ffffff" stroke="#94a3b8"/></g><g data-node-row="2" data-node-col="3" data-action="15" data-role="cell"><rect x="166" y="184" width="46" height="46" fill="#ffffff" stroke="#94a3b8"/></g><g data-node-row="2" data-node-col="4" data-action="16" data-role="cell"><rect x="212" y="184" width="46" height="46" fill="#ffffff" stroke="#94a3b8"/></g><g data-node-row="2" data-node-col="5" data-action="17" data-role="cell"><rect x="258" y="184" width="46" height="46" fill="#ffffff" stroke="#94a3b8"/></g><g data-node-row="3" data-node-col="0" data-action="18" data-role="cell"><rect x="28" y="230" width="46" height="46" fill="#ffffff" stroke="#94a3b8"/><circle cx="51.0" cy="253.0" r="14" fill="#ffffff" stroke="#0f172a" stroke-width="2"/></g><g data-node-row="3" data-node-col="1" data-action="19" data-role="mcts_candidate"><rect x="74" y="230" width="46" height="46" fill="#ffffff" stroke="#94a3b8"/></g><g data-node-row="3" data-node-col="2" data-action="20" data-role="cell"><rect x="120" y="230" width="46" height="46" fill="#ffffff" stroke="#94a3b8"/></g><g data-node-row="3" data-node-col="3" data-action="21" data-role="cell"><rect x="166" y="230" width="46" height="46" fill="#ffffff" stroke="#94a3b8"/></g><g data-node-row="3" data-node-col="4" data-action="22" data-role="cell"><rect x="212" y="230" width="46" height="46" fill="#ffffff" stroke="#94a3b8"/></g><g data-node-row="3" data-node-col="5" data-action="23" data-role="cell"><rect x="258" y="230" width="46" height="46" fill="#ffffff" stroke="#94a3b8"/></g><g data-node-row="4" data-node-col="0" data-action="24" data-role="cell"><rect x="28" y="276" width="46" height="46" fill="#ffffff" stroke="#94a3b8"/><circle cx="51.0" cy="299.0" r="14" fill="#ffffff" stroke="#0f172a" stroke-width="2"/></g><g data-node-row="4" data-node-col="1" data-action="25" data-role="cell"><rect x="74" y="276" width="46" height="46" fill="#ffffff" stroke="#94a3b8"/></g><g data-node-row="4" data-node-col="2" data-action="26" data-role="cell"><rect x="120" y="276" width="46" height="46" fill="#ffffff" stroke="#94a3b8"/></g><g data-node-row="4" data-node-col="3" data-action="27" data-role="cell"><rect x="166" y="276" width="46" height="46" fill="#ffffff" stroke="#94a3b8"/></g><g data-node-row="4" data-node-col="4" data-action="28" data-role="cell"><rect x="212" y="276" width="46" height="46" fill="#ffffff" stroke="#94a3b8"/></g><g data-node-row="4" data-node-col="5" data-action="29" data-role="cell"><rect x="258" y="276" width="46" height="46" fill="#ffffff" stroke="#94a3b8"/></g><g data-node-row="5" data-node-col="0" data-action="30" data-role="cell"><rect x="28" y="322" width="46" height="46" fill="#ffffff" stroke="#94a3b8"/><circle cx="51.0" cy="345.0" r="14" fill="#ffffff" stroke="#0f172a" stroke-width="2"/></g><g data-node-row="5" data-node-col="1" data-action="31" data-role="cell"><rect x="74" y="322" width="46" height="46" fill="#ffffff" stroke="#94a3b8"/></g><g data-node-row="5" data-node-col="2" data-action="32" data-role="cell"><rect x="120" y="322" width="46" height="46" fill="#ffffff" stroke="#94a3b8"/></g><g data-node-row="5" data-node-col="3" data-action="33" data-role="cell"><rect x="166" y="322" width="46" height="46" fill="#ffffff" stroke="#94a3b8"/></g><g data-node-row="5" data-node-col="4" data-action="34" data-role="cell"><rect x="212" y="322" width="46" height="46" fill="#ffffff" stroke="#94a3b8"/></g><g data-node-row="5" data-node-col="5" data-action="35" data-role="cell"><rect x="258" y="322" width="46" height="46" fill="#ffffff" stroke="#94a3b8"/><circle cx="281.0" cy="345.0" r="14" fill="#ffffff" stroke="#0f172a" stroke-width="2"/><circle data-role="last_move" cx="281.0" cy="345.0" r="4" fill="#f97316"/></g><text x="344" y="110" class="b">Value V(s): -0.650391</text><text x="344" y="132" class="b">Selected raw prior: 0.083015</text><text x="344" y="166" class="n">move       raw P   tree P    N      Q       pi</text><g data-action="1" data-visits="6" data-q="-0.597875754"><text x="344" y="190" class="b">*(0,1)   0.083   0.083     6   -0.598   0.120</text></g><g data-action="7" data-visits="5" data-q="-0.585834855"><text x="344" y="215" class="b"> (1,1)   0.062   0.062     5   -0.586   0.100</text></g><g data-action="13" data-visits="4" data-q="-0.598057181"><text x="344" y="240" class="b"> (2,1)   0.062   0.062     4   -0.598   0.080</text></g><g data-action="8" data-visits="4" data-q="-0.580655463"><text x="344" y="265" class="b"> (1,2)   0.051   0.051     4   -0.581   0.080</text></g><g data-action="19" data-visits="4" data-q="-0.594243854"><text x="344" y="290" class="b"> (3,1)   0.050   0.050     4   -0.594   0.080</text></g><path data-relation="diagonal_down" data-attention="1.000000000" d="M 916 271 L 880 235" stroke="#dc2626" stroke-width="8.000" opacity="0.950" fill="none"/><path data-relation="diagonal_up" data-attention="1.000000000" d="M 880 235 L 844 271" stroke="#9333ea" stroke-width="8.000" opacity="0.950" fill="none"/><path data-relation="diagonal_up" data-attention="1.000000000" d="M 844 271 L 880 235" stroke="#9333ea" stroke-width="8.000" opacity="0.950" fill="none"/><path data-relation="horizontal" data-attention="1.000000000" d="M 880 235 L 844 235" stroke="#2563eb" stroke-width="8.000" opacity="0.950" fill="none"/><path data-relation="vertical" data-attention="1.000000000" d="M 880 271 L 880 235" stroke="#16a34a" stroke-width="8.000" opacity="0.950" fill="none"/><path data-relation="diagonal_down" data-attention="0.566716552" d="M 880 235 L 916 271" stroke="#dc2626" stroke-width="4.967" opacity="0.647" fill="none"/><path data-relation="vertical" data-attention="0.542273983" d="M 880 235 L 880 271" stroke="#16a34a" stroke-width="4.796" opacity="0.630" fill="none"/><path data-relation="horizontal" data-attention="0.521322414" d="M 916 235 L 880 235" stroke="#2563eb" stroke-width="4.649" opacity="0.615" fill="none"/><path data-relation="horizontal" data-attention="0.494513877" d="M 880 235 L 916 235" stroke="#2563eb" stroke-width="4.462" opacity="0.596" fill="none"/><path data-relation="horizontal" data-attention="0.478677578" d="M 844 235 L 880 235" stroke="#2563eb" stroke-width="4.351" opacity="0.585" fill="none"/><path data-relation="diagonal_down" data-attention="1.000000000" d="M 880 271 L 844 235" stroke="#dc2626" stroke-width="8.000" opacity="0.950" fill="none"/><path data-relation="diagonal_down" data-attention="1.000000000" d="M 880 307 L 844 271" stroke="#dc2626" stroke-width="8.000" opacity="0.950" fill="none"/><circle cx="880" cy="235" r="18" fill="#fef3c7" stroke="#e11d48" stroke-width="4"/><text x="880" y="239" class="n" text-anchor="middle">SELECT</text></svg>